<?xml version="1.0" encoding="utf-8"?>
<!-- Generator: Adobe Illustrator 18.1.1, SVG Export Plug-In . SVG Version: 6.00 Build 0)  -->
<svg version="1.1" id="Layer_1" xmlns="http://www.w3.org/2000/svg" xmlns:xlink="http://www.w3.org/1999/xlink" x="0px" y="0px"
	 viewBox="0 0 291.3 54.6" enable-background="new 0 0 291.3 54.6" xml:space="preserve">
<g>
	<g>
		<path d="M172.5,50c2.5,0,4.5-0.2,6.2-0.7c1.6-0.4,3.2-1,4.7-1.7l1.3,4.4c-1.7,0.8-3.5,1.4-5.5,1.9c-2,0.4-4.4,0.6-7.3,0.6
			c-3.1,0-6.1-0.5-8.8-1.6c-2.8-1.1-5.1-2.6-7.2-4.7c-2-2.1-3.7-4.6-4.8-7.6c-1.2-3-1.8-6.5-1.8-10.5c0-3.9,0.6-7.4,1.7-10.4
			c1.1-3.1,2.7-5.6,4.8-7.7c2-2.1,4.5-3.7,7.2-4.8s5.8-1.6,9.1-1.6c3,0,5.5,0.2,7.4,0.7s3.8,1.2,5.4,2l-1.3,4.2
			c-1.8-0.9-3.5-1.5-5.1-1.9c-1.6-0.4-3.5-0.6-5.6-0.6c-2.4,0-4.6,0.4-6.8,1.1c-2.1,0.8-4,1.9-5.6,3.6c-1.6,1.6-2.9,3.7-3.9,6.2
			c-1,2.5-1.5,5.6-1.5,9.2c0,3.7,0.5,6.8,1.5,9.3c1,2.5,2.3,4.6,3.9,6.1c1.6,1.6,3.5,2.7,5.6,3.4C168.1,49.6,170.3,50,172.5,50z"/>
		<path d="M190.1,53.7V0h5.2v53.7H190.1z"/>
		<path d="M206.1,9c-1,0-1.9-0.3-2.5-1c-0.7-0.7-1-1.5-1-2.6s0.3-1.9,1-2.6c0.7-0.7,1.5-1,2.5-1c0.9,0,1.7,0.3,2.5,1
			c0.7,0.7,1.1,1.5,1.1,2.6s-0.4,2-1.1,2.6C207.8,8.7,207,9,206.1,9z M203.4,53.7V18.2h5.3v35.6H203.4z"/>
		<path d="M221.8,53.7h-5.3V18.2h4l0.8,4.9c1.8-1.7,3.6-3,5.6-3.9c1.9-1,4.2-1.4,6.7-1.4c3.6,0,6.5,1,8.6,3c2.1,2,3.1,4.8,3.1,8.5
			v24.5H240V30.2c0-2.4-0.6-4.3-1.8-5.9c-1.2-1.5-3.2-2.3-6.1-2.3c-1.8,0-3.6,0.4-5.4,1.3c-1.8,0.9-3.5,2.1-4.9,3.7V53.7z"/>
		<path d="M255.7,9c-1,0-1.9-0.3-2.5-1c-0.7-0.7-1-1.5-1-2.6s0.3-1.9,1-2.6c0.7-0.7,1.5-1,2.5-1c0.9,0,1.7,0.3,2.5,1
			c0.7,0.7,1.1,1.5,1.1,2.6s-0.4,2-1.1,2.6C257.5,8.7,256.7,9,255.7,9z M253.1,53.7V18.2h5.3v35.6H253.1z"/>
		<path d="M282.2,50.4c1.6,0,3.1-0.2,4.3-0.5c1.3-0.4,2.5-0.8,3.6-1.4l1.1,3.9c-2.7,1.4-5.9,2-9.6,2c-2.5,0-4.8-0.4-7-1.1
			c-2.2-0.8-4.1-1.9-5.7-3.4c-1.6-1.5-2.9-3.5-3.9-5.7c-0.9-2.3-1.4-5-1.4-8.1c0-2.8,0.4-5.4,1.3-7.6c0.9-2.3,2.1-4.2,3.7-5.8
			c1.6-1.6,3.5-2.8,5.6-3.6c2.2-0.8,4.6-1.3,7.2-1.3c1.6,0,3.1,0.1,4.6,0.3c1.5,0.2,3.1,0.7,5,1.6l-1.2,4.1
			c-1.3-0.7-2.6-1.2-3.8-1.5c-1.2-0.3-2.5-0.4-3.8-0.4c-3.9,0-7.1,1.2-9.5,3.7c-2.4,2.5-3.6,5.9-3.6,10.3c0,2.8,0.4,5.1,1.1,7
			c0.8,1.9,1.7,3.4,3,4.5c1.2,1.1,2.6,1.9,4.2,2.4C279,50.2,280.6,50.4,282.2,50.4z"/>
	</g>
	<g>
		<path d="M0,6.1h20c2.7,0,5,0.4,7.1,1.2c2,0.8,3.7,1.8,5.1,3.2c1.4,1.3,2.4,2.9,3.1,4.7c0.7,1.8,1,3.7,1,5.8c0,1.9-0.3,3.6-0.9,5.1
			c-0.6,1.5-1.3,2.8-2.2,3.9c-0.9,1.1-1.9,2-3,2.7c-1.1,0.7-2.1,1.3-3.1,1.8l11.7,19.4H26.9l-9.2-17.6h-7.4v17.6H0V6.1z M10.3,28.2
			h6c2.7,0,5-0.6,6.7-1.7c1.7-1.1,2.6-3,2.6-5.5c0-2.3-0.7-4-2.1-5.3c-1.4-1.2-3.4-1.9-6.1-1.9h-7.1V28.2z"/>
	</g>
	<g>
		<path d="M78.2,6.1v8.2H63.8v39.5H53.4V14.2H39.3V6.1H78.2z"/>
	</g>
	<g>
		<path d="M105.1,5.2c3,0,6.6,0.3,8.9,0.8c2.3,0.5,4.4,1.2,6.3,2l-2.2,7c-1.8-0.9-3.6-1.5-5.4-1.9c-1.9-0.4-4.7-0.6-6.5-0.6
			c-2.1,0-5,0.3-6.8,1c-1.8,0.7-3.4,1.7-4.8,3.1c-1.4,1.4-2.4,3.2-3.3,5.4c-0.8,2.2-1.2,4.8-1.2,7.9c0,5.5,1.2,9.7,3.7,12.7
			c2.4,3,6.9,4.4,11.4,4.4c2.6,0,5.5-0.2,6.9-0.8V35.2h-7.9v-7.7H122v24.1c-2,0.9-4.3,1.6-6.9,2.1c-2.6,0.6-6.6,0.8-10,0.8
			c-3.5,0-7.8-0.5-10.8-1.6c-3.1-1.1-5.7-2.6-8-4.7c-2.2-2.1-4-4.7-5.3-7.7c-1.3-3.1-1.9-6.6-1.9-10.6c0-4,0.6-7.5,1.9-10.6
			c1.3-3.1,3-5.7,5.3-7.8c2.2-2.1,4.9-3.6,7.9-4.7C97.3,5.8,101.5,5.2,105.1,5.2z"/>
	</g>
</g>
</svg>
